<svg id="Modified" xmlns="http://www.w3.org/2000/svg" viewBox="0 0 500 100"><defs><style>.cls-1{fill:none;stroke:#000;stroke-miterlimit:10;stroke-width:0.8px;}.cls-2{fill:#ccc;}.cls-3{fill:#e0e0e0;}.cls-4{fill:#6d6d6f;}.cls-5{fill:#c2c2c4;}.cls-6{fill:#8f8f8f;}.cls-7{fill:#d9d9db;}.cls-8{fill:#999;}.cls-9{fill:#009ace;}.cls-10{fill:#777576;}</style></defs><title>Artboard 1</title><path class="cls-1" d="M52.82,10.14s12.68,1.61,17.34,7.55c0,0,3.61,3,6.18,12.44a73,73,0,0,1,2.09,10.44l-1.28,2.09,5.94,10.11s1,2.89-1.93,3.53c0,0-2.09.48-2.25,2.09,0,0,1.61,1.93.64,3.21l-1.12,1.12,1.12,2.09s.16.48-.48.8l-1,.48s-.32.16-.32.8a9,9,0,0,0,.32,3.85,2,2,0,0,1-.16,1.93c-.64,1-2.09,2.41-2.89,2.57l-1.28.32-1.28.16s-6.74-.16-6.9,0-5,.32-7.55,3.69L55.63,91.78l-.16.8s-.48.48-.8.32"/><path class="cls-2" d="M78.49,48.16c-.46.18-.93.35-1.39.54-1.28.53-2.57,1-3.86,1.53L71.31,51l-3.1,1.19-1.86.7-.23.1-2.66.94-2.72,1-.15.06c-1.44.5-2.88,1-4.31,1.5-2.14.76-4.3,1.44-6.44,2.2-3.57,1.27-7.19,2.4-10.78,3.63a2,2,0,0,1-1,.19.79.79,0,0,1,.48-.3l1.81-.6c1.55-.53,3.1-1,4.63-1.61.94-.35,1.89-.63,2.82-1s1.67-.59,2.5-.92c.67-.27,1.36-.48,2-.74,1.42-.54,2.87-1,4.28-1.59.64-.26,1.3-.48,1.95-.72l1.94-.74,2.87-1.09,2.09-.82,2.85-1.16,2.46-1c.9-.37,1.81-.7,2.69-1.11s2-.78,2.9-1.25c.54-.27,1.12-.48,1.68-.71l.23-.1c.9-.42,1.8-.86,2.72-1.26,1.07-.46,2.1-1,3.16-1.48A31.58,31.58,0,0,0,87,43c.94-.53,1.93-1,2.85-1.55.54-.33,1.12-.61,1.67-.93,1.34-.79,2.67-1.59,3.93-2.49a20.29,20.29,0,0,0,2-1.53c.34-.32.72-.6,1.06-.93a10.61,10.61,0,0,0,1.36-1.67,5.06,5.06,0,0,0,.81-1.9,1,1,0,0,0,0-.33,3.82,3.82,0,0,0-.31-1.2,11.25,11.25,0,0,0-1-1.36.74.74,0,0,0-.19-.16l-.76-.51a2.63,2.63,0,0,0-.74-.36c-.26-.08-.52-.19-.79-.27a7.75,7.75,0,0,0-2-.39.5.5,0,0,1-.37-.15,5.4,5.4,0,0,0,1.4,0c.58,0,1.17,0,1.75.09a12.16,12.16,0,0,1,3.07.6,6.66,6.66,0,0,1,1.88,1,2.45,2.45,0,0,1,.47.47,6.49,6.49,0,0,1,.82,1.44,1.19,1.19,0,0,1,.09.32,3.21,3.21,0,0,1-.2,1.63,6.26,6.26,0,0,1-1.29,2c-.49.48-1,1-1.48,1.46a10.43,10.43,0,0,1-.9.73,34.54,34.54,0,0,1-3.23,2.18l-.21.13c-.8.55-1.66,1-2.5,1.48C92.09,42,89.88,43,87.69,44.12a22.41,22.41,0,0,1-2.2,1,4.51,4.51,0,0,0-.45.21c-.84.42-1.71.78-2.58,1.14-.56.23-1.11.49-1.67.74l-.84.35"/><path class="cls-3" d="M47.41,30.76A1.17,1.17,0,0,1,48.48,30l1.82.07a1,1,0,0,0,1-.75l.16-.76a.85.85,0,0,0-.61-1L49,27.15a1.06,1.06,0,0,1-.76-1l0-1.44a1.16,1.16,0,0,1,.68-1.1l1.7-.68a1,1,0,0,0,.58-1.08L51,21.1a.85.85,0,0,0-1-.65l-1.85.31a1.07,1.07,0,0,1-1.1-.61l-.61-1.27a1.15,1.15,0,0,1,.17-1.28L48,16.26A1,1,0,0,0,48.09,15l-.46-.63a.85.85,0,0,0-1.14-.2l-1.6,1.07a1.06,1.06,0,0,1-1.25-.11l-1.05-.89A1.16,1.16,0,0,1,42.22,13l.67-1.81a1,1,0,0,0-.42-1.15l-.67-.39a1,1,0,0,0-1.21.22l-1.32,1.6a1.26,1.26,0,0,1-1.27.36s-.6-.2-1.31-.36l-.11,0c-.12,0-.24-.4-.27-.84l-.13-2a1,1,0,0,0-.85-.88l-.77-.08a.85.85,0,0,0-.92.71l-.29,1.94a1,1,0,0,1-.92.85L31,11.41a1.18,1.18,0,0,1-1.17-.57l-.9-1.7a1,1,0,0,0-1.14-.46L27,8.93a.85.85,0,0,0-.54,1L27,11.81A1,1,0,0,1,26.54,13l-1.2.72a1.18,1.18,0,0,1-1.3,0l-1.48-1.16a1,1,0,0,0-1.23,0l-.57.52a.85.85,0,0,0-.08,1.16l1.19,1.43a1,1,0,0,1,0,1.25l-.82,1.17a1.17,1.17,0,0,1-1.2.49l-1.77-.44a1,1,0,0,0-1.1.54l-.31.71a.85.85,0,0,0,.4,1.09l1.65.81a1,1,0,0,1,.53,1l-.08.35c-.14.65-.2,1.16-.2,1.16a1.13,1.13,0,0,1-.88.94l-1.79.31a1,1,0,0,0-.79.94v.77a.85.85,0,0,0,.81.83l1.85.07a1.07,1.07,0,0,1,1,.82l.34,1.38a1.15,1.15,0,0,1-.43,1.22l-1.54,1a1,1,0,0,0-.34,1.18l.32.71a.85.85,0,0,0,1.08.43l1.77-.71a1.06,1.06,0,0,1,1.21.36l.85,1.1a1.16,1.16,0,0,1,.1,1.29l-1,1.62a1,1,0,0,0,.17,1.21l.58.52a.85.85,0,0,0,1.16,0l1.36-1.4A1.06,1.06,0,0,1,26,38.23l1.2.65A1.16,1.16,0,0,1,27.83,40l-.28,1.93a1,1,0,0,0,.65,1l.74.24a.85.85,0,0,0,1-.51l.68-1.85a1.05,1.05,0,0,1,1.07-.65l1.35.12a1.17,1.17,0,0,1,1,.8L34.65,43a1,1,0,0,0,1,.69l.77-.08a.85.85,0,0,0,.75-.89l-.13-1.94a1,1,0,0,1,.72-1l1.31-.45a1.18,1.18,0,0,1,1.26.32l1.22,1.46a1,1,0,0,0,1.21.21l.67-.39a.85.85,0,0,0,.32-1.11l-.88-1.68a1,1,0,0,1,.24-1.22l1-1a1.18,1.18,0,0,1,1.28-.22l1.66.81a1,1,0,0,0,1.19-.3l.45-.63a.85.85,0,0,0-.16-1.15L47.13,33.3a1,1,0,0,1-.28-1.22Zm-14.5-2.31a2.89,2.89,0,1,1,3.44-2.21A2.89,2.89,0,0,1,32.91,28.45Z"/><path class="cls-4" d="M34.67,20.36a5.39,5.39,0,1,0,4.12,6.41A5.39,5.39,0,0,0,34.67,20.36Zm-1.76,8.09a2.89,2.89,0,1,1,3.44-2.21A2.89,2.89,0,0,1,32.91,28.45Z"/><path class="cls-5" d="M35.9,14.7A11.17,11.17,0,1,0,44.44,28,11.17,11.17,0,0,0,35.9,14.7ZM32.38,30.89a5.39,5.39,0,1,1,6.41-4.12A5.39,5.39,0,0,1,32.38,30.89Z"/><path class="cls-4" d="M36.35,12.65A13.27,13.27,0,1,0,46.5,28.44,13.27,13.27,0,0,0,36.35,12.65ZM31.16,36.54A11.17,11.17,0,1,1,44.44,28,11.17,11.17,0,0,1,31.16,36.54Z"/><path d="M54.93,15.89,57,15.53V14.08L54.88,14a8.79,8.79,0,0,0-.44-1.8L56.18,11l-.6-1.32-2,.79A9,9,0,0,0,52.47,9L53.6,7.23l-1.09-1L51,7.82A9,9,0,0,0,49.41,7l.3-2.14-1.39-.44-1,2A9.14,9.14,0,0,0,46,6.28h-.2l-.6-2.09-1.44.16.14,2.17a9,9,0,0,0-1.76.62L40.71,5.5l-1.25.74,1,1.9A9,9,0,0,0,39.15,9.4l-1.92-.92-.84,1.19L38.06,11a8.81,8.81,0,0,0-.71,1.71l-2.1-.07L35,14l2,.51c0,.22,0,.43,0,.65a8.9,8.9,0,0,0,.08,1.2l-1.94.79.32,1.42,2.08-.37a8.84,8.84,0,0,0,.82,1.66l-1.46,1.53.87,1.17,1.78-1.2a9,9,0,0,0,1.4,1.17l-.73,2,1.27.71,1.15-1.84a9,9,0,0,0,1.74.5l.16,2.17,1.45.14.3-2.16a9.07,9.07,0,0,0,1.79-.24l1,1.91,1.38-.46-.6-2.08a9,9,0,0,0,1.56-.95l1.69,1.32,1.07-1L52.81,21a8.93,8.93,0,0,0,1.06-1.51l2,.51.58-1.33-1.89-.93A8.81,8.81,0,0,0,54.93,15.89Zm-9,1a1.77,1.77,0,1,1,1.77-1.77A1.77,1.77,0,0,1,45.92,16.88Z"/><path class="cls-4" d="M45.92,11.82a3.29,3.29,0,1,0,3.29,3.29A3.29,3.29,0,0,0,45.92,11.82Zm0,5.06a1.77,1.77,0,1,1,1.77-1.77A1.77,1.77,0,0,1,45.92,16.88Z"/><path class="cls-5" d="M45.92,8.29a6.82,6.82,0,1,0,6.82,6.82A6.82,6.82,0,0,0,45.92,8.29Zm0,10.11a3.29,3.29,0,1,1,3.29-3.29A3.29,3.29,0,0,1,45.92,18.41Z"/><path class="cls-4" d="M45.92,7A8.11,8.11,0,1,0,54,15.11,8.11,8.11,0,0,0,45.92,7Zm0,14.93a6.82,6.82,0,1,1,6.82-6.82A6.82,6.82,0,0,1,45.92,21.94Z"/><path class="cls-6" d="M53.49,36.12l2.06-.36V34.3l-2.1-.08a8.79,8.79,0,0,0-.44-1.8l1.74-1.17-.6-1.32-2,.79A9,9,0,0,0,51,29.27l1.13-1.81-1.09-1L49.57,28A9,9,0,0,0,48,27.19l.3-2.14-1.39-.44-1,2a9.14,9.14,0,0,0-1.32-.1h-.2l-.6-2.09-1.44.16.14,2.17a9,9,0,0,0-1.76.62l-1.39-1.65L38,26.47l1,1.9a9,9,0,0,0-1.33,1.26l-1.92-.92-.84,1.19,1.67,1.3a8.81,8.81,0,0,0-.71,1.71l-2.1-.07-.29,1.43,2,.51c0,.22,0,.43,0,.65a8.9,8.9,0,0,0,.08,1.2l-1.94.79L34,38.84l2.08-.37a8.84,8.84,0,0,0,.82,1.66l-1.46,1.53.87,1.17,1.78-1.2a9,9,0,0,0,1.4,1.17l-.73,2,1.27.71,1.15-1.84a9,9,0,0,0,1.74.5l.16,2.17,1.45.14.3-2.16a9.07,9.07,0,0,0,1.79-.24l1,1.91L49,45.55l-.6-2.08A9,9,0,0,0,50,42.52l1.69,1.32,1.07-1-1.37-1.64a8.93,8.93,0,0,0,1.06-1.51l2,.51L55,38.88l-1.89-.93A8.81,8.81,0,0,0,53.49,36.12Zm-9,1a1.77,1.77,0,1,1,1.77-1.77A1.77,1.77,0,0,1,44.47,37.11Z"/><path class="cls-6" d="M44.47,32.05a3.29,3.29,0,1,0,3.29,3.29A3.29,3.29,0,0,0,44.47,32.05Zm0,5.06a1.77,1.77,0,1,1,1.77-1.77A1.77,1.77,0,0,1,44.47,37.11Z"/><path class="cls-7" d="M44.47,28.52a6.82,6.82,0,1,0,6.82,6.82A6.82,6.82,0,0,0,44.47,28.52Zm0,10.11a3.29,3.29,0,1,1,3.29-3.29A3.29,3.29,0,0,1,44.47,38.64Z"/><path class="cls-6" d="M44.47,27.24a8.11,8.11,0,1,0,8.11,8.11A8.11,8.11,0,0,0,44.47,27.24Zm0,14.93a6.82,6.82,0,1,1,6.82-6.82A6.82,6.82,0,0,1,44.47,42.17Z"/><path class="cls-8" d="M78,40.29c.18-.11.35-.23.53-.36l.57-.39a45.91,45.91,0,0,0,8.41-6.2,6.59,6.59,0,0,0,1.22-1.57A1.37,1.37,0,0,0,88,29.66a7.36,7.36,0,0,0-2.84-.55c-1.11,0-2.22,0-3.33,0-.29,0-.69.12-.79-.36l2.44-.46c.52-.09,1-.16,1.55-.23l1.15-.17c.63-.09,1.25-.2,1.88-.28s1.48-.15,2.22-.22c.14,0,.28,0,.41,0A19.25,19.25,0,0,1,94,27.22h.5a11.53,11.53,0,0,1,3.24.59A5.32,5.32,0,0,1,99.7,29.1c1.45,1.65,1.53,3,.35,4.83a16.42,16.42,0,0,1-4.92,4.54A90.41,90.41,0,0,1,82.06,45.6c-5.89,2.72-11.89,5.21-17.94,7.57-7,2.72-14,5.3-21.08,7.68l-5,1.67c-.57.2-1.14.4-1.72.59l-2.44.76c-.18.1-.33.13-.31-.16l1.62-.84,5.76-3L44.53,58l5.31-2.75,5.61-2.89,9-4.56C67,46.55,69.51,45.27,72,44c.91-.47,1.78-1,2.66-1.53.57-.34,1.13-.7,1.7-1"/><path class="cls-2" d="M74.35,30.47c-.14,0-.33,0-.28-.24l2-.45,2.25-.47c.8-.16,1.6-.34,2.39-.57a1.24,1.24,0,0,1,.33,0c.07,0,.13.11.21.12a3.69,3.69,0,0,0,.5,0h2.91A5.73,5.73,0,0,1,86.5,29a4.81,4.81,0,0,1,1.52.37,2,2,0,0,1,1.15,1,1.86,1.86,0,0,1-.08,1.22,5.46,5.46,0,0,1-1,1.43,16.44,16.44,0,0,1-1.41,1.41c-.6.53-1.22,1-1.87,1.51-1.18.87-2.37,1.73-3.61,2.51-.54.34-1.07.69-1.61,1a4.27,4.27,0,0,1-.53.24L79,39.64c.07-.38.39-.52.66-.71a48,48,0,0,0,4.12-3.22,9.54,9.54,0,0,0,1.93-2.27,1.53,1.53,0,0,0-.93-2.53,9,9,0,0,0-2.69-.46c-1.47,0-2.94,0-4.41,0"/><path class="cls-9" d="M112.06,55a21.35,21.35,0,0,0,9.38,2.33c3.89,0,5.94-1.61,5.94-4.06s-1.78-3.67-6.27-5.23c-6.22-2.22-10.33-5.67-10.33-11.12,0-6.39,5.38-11.23,14.16-11.23a21.86,21.86,0,0,1,9.55,1.89l-1.89,6.78a17.48,17.48,0,0,0-7.77-1.78c-3.66,0-5.44,1.72-5.44,3.61,0,2.39,2.05,3.45,6.94,5.28,6.61,2.45,9.66,5.89,9.66,11.18,0,6.28-4.77,11.62-15,11.62a24.37,24.37,0,0,1-10.6-2.33Z"/><path class="cls-9" d="M177.4,44.56C177.4,56.9,170,64.29,159,64.29s-17.6-8.4-17.6-19.13c0-11.23,7.22-19.63,18.21-19.63C171.12,25.54,177.4,34.16,177.4,44.56Zm-27,.44c0,7.4,3.44,12.57,9.1,12.57s9-5.45,9-12.73c0-6.78-3.16-12.57-9-12.57S150.36,37.72,150.36,45Z"/><path class="cls-9" d="M184.39,26.21h8.44V56.57h14.88v7.12H184.39Z"/><path class="cls-9" d="M219.31,63.68l-12-37.48h9.27l4.55,15.85c1.28,4.5,2.44,8.73,3.33,13.4h.17c.94-4.5,2.11-9,3.39-13.23l4.77-16h9l-12.6,37.48Z"/><path class="cls-9" d="M269.44,47.84H255.67v8.9H271v7H247.23V26.21h23v7h-14.6v7.78h13.77Z"/><path class="cls-9" d="M278.21,26.71a73.66,73.66,0,0,1,11.27-.78c5.55,0,9.44.83,12.1,2.95a9.51,9.51,0,0,1,3.5,7.9,9.93,9.93,0,0,1-6.61,9.17v.17c2.61,1.06,4.05,3.5,5,7,1.17,4.28,2.28,9.17,3,10.62h-8.66A50.2,50.2,0,0,1,295.25,55c-1.05-4.73-2.67-5.95-6.16-6h-2.5V63.68h-8.38Zm8.38,16.13h3.33c4.22,0,6.72-2.11,6.72-5.39s-2.33-5.17-6.22-5.17a16.79,16.79,0,0,0-3.83.28Z"/><path class="cls-9" d="M344.16,49.34c-.17-4.5-.33-10-.33-15.4h-.11c-1.22,4.78-2.78,10.12-4.22,14.51l-4.55,14.62h-6.61l-4-14.46c-1.22-4.45-2.44-9.79-3.39-14.68h-.11c-.17,5.06-.39,10.84-.61,15.51l-.72,14.23h-7.83l2.39-37.48h11.27L329,38.72c1.22,4.34,2.33,9,3.16,13.4h.22c1-4.34,2.28-9.29,3.55-13.46l3.94-12.46H351l2,37.48h-8.22Z"/><path class="cls-9" d="M369.36,26.21V63.68h-8.44V26.21Z"/><path class="cls-9" d="M378.08,63.68V26.21H388l7.77,13.73a118.21,118.21,0,0,1,6.11,12.84h.11a154.75,154.75,0,0,1-.67-15.68V26.21h7.77V63.68h-8.88l-8-14.46A127.06,127.06,0,0,1,385.68,36h-.22c.28,5,.39,10.29.39,16.4V63.68Z"/><path class="cls-9" d="M417.77,26.76a74.53,74.53,0,0,1,11.38-.83c7.16,0,11.82,1.33,15.38,4,3.89,2.89,6.33,7.51,6.33,14.12,0,7.17-2.61,12.12-6.16,15.18-3.94,3.28-10,4.84-17.32,4.84a72.38,72.38,0,0,1-9.6-.56Zm8.44,30.53a15.82,15.82,0,0,0,2.94.17c7.72.06,12.77-4.17,12.77-13.12,0-7.78-4.55-11.9-11.88-11.9a18,18,0,0,0-3.83.33Z"/><path class="cls-9" d="M458.07,55a21.35,21.35,0,0,0,9.38,2.33c3.89,0,5.94-1.61,5.94-4.06s-1.78-3.67-6.27-5.23c-6.22-2.22-10.32-5.67-10.32-11.12,0-6.39,5.38-11.23,14.16-11.23a21.86,21.86,0,0,1,9.55,1.89l-1.89,6.78a17.48,17.48,0,0,0-7.77-1.78c-3.66,0-5.44,1.72-5.44,3.61,0,2.39,2.05,3.45,6.94,5.28,6.61,2.45,9.66,5.89,9.66,11.18,0,6.28-4.77,11.62-15,11.62a24.37,24.37,0,0,1-10.6-2.33Z"/><path class="cls-10" d="M110.87,85.28a6.76,6.76,0,0,0,3.07.79c1.27,0,1.94-.55,1.94-1.38s-.58-1.25-2-1.78c-2-.76-3.37-1.93-3.37-3.79,0-2.18,1.76-3.83,4.63-3.83a6.9,6.9,0,0,1,3.12.64l-.62,2.31a5.53,5.53,0,0,0-2.54-.61c-1.2,0-1.78.59-1.78,1.23,0,.81.67,1.17,2.27,1.8,2.16.83,3.16,2,3.16,3.81,0,2.14-1.56,4-4.92,4a7.69,7.69,0,0,1-3.47-.8Z"/><path class="cls-10" d="M136.1,81.74c0,4.2-2.41,6.72-6,6.72s-5.75-2.86-5.75-6.51c0-3.83,2.36-6.68,6-6.68C134,75.26,136.1,78.2,136.1,81.74Zm-8.84.15c0,2.52,1.12,4.28,3,4.28s2.94-1.86,2.94-4.34c0-2.31-1-4.28-2.94-4.28S127.26,79.41,127.26,81.89Z"/><path class="cls-10" d="M142.25,75.49H145V85.83h4.86v2.42h-7.62Z"/><path class="cls-10" d="M158,75.49v7.33c0,2.22.82,3.33,2.21,3.33s2.25-1.06,2.25-3.33V75.49h2.76v7.16c0,3.94-1.9,5.81-5.1,5.81s-4.88-1.8-4.88-5.85V75.49Z"/><path class="cls-10" d="M174.34,77.91H171V75.49h9.4v2.42H177.1V88.25h-2.76Z"/><path class="cls-10" d="M189,75.49V88.25h-2.76V75.49Z"/><path class="cls-10" d="M206.91,81.74c0,4.2-2.41,6.72-6,6.72s-5.75-2.86-5.75-6.51c0-3.83,2.36-6.68,6-6.68C204.86,75.26,206.91,78.2,206.91,81.74Zm-8.84.15c0,2.52,1.12,4.28,3,4.28S204,84.31,204,81.83c0-2.31-1-4.28-2.94-4.28S198.08,79.41,198.08,81.89Z"/><path class="cls-10" d="M213,88.25V75.49h3.23l2.54,4.68a41.17,41.17,0,0,1,2,4.37h0c-.16-1.68-.22-3.41-.22-5.34V75.49h2.54V88.25h-2.9l-2.61-4.92a44.08,44.08,0,0,1-2.12-4.51h-.07c.09,1.71.13,3.5.13,5.59v3.84Z"/><path class="cls-10" d="M230,85.28a6.76,6.76,0,0,0,3.07.79c1.27,0,1.94-.55,1.94-1.38s-.58-1.25-2-1.78c-2-.76-3.37-1.93-3.37-3.79,0-2.18,1.76-3.83,4.63-3.83a6.9,6.9,0,0,1,3.12.64l-.62,2.31a5.53,5.53,0,0,0-2.54-.61c-1.2,0-1.78.59-1.78,1.23,0,.81.67,1.17,2.27,1.8,2.16.83,3.16,2,3.16,3.81,0,2.14-1.56,4-4.92,4a7.69,7.69,0,0,1-3.47-.8Z"/><path class="cls-10" d="M254.84,85,254,88.25h-2.85l3.72-12.76h3.63l3.81,12.76h-3L258.34,85Zm3.1-2.16-.76-2.71c-.22-.76-.44-1.7-.62-2.46h0c-.18.76-.36,1.72-.56,2.46l-.73,2.71Z"/><path class="cls-10" d="M268.22,88.25V75.49h3.23L274,80.17a41.18,41.18,0,0,1,2,4.37h0c-.16-1.68-.22-3.41-.22-5.34V75.49h2.54V88.25h-2.9l-2.61-4.92a44.19,44.19,0,0,1-2.12-4.51h-.07c.09,1.71.13,3.5.13,5.59v3.84Z"/><path class="cls-10" d="M285.06,75.68a23.35,23.35,0,0,1,3.72-.28,7.72,7.72,0,0,1,5,1.36,5.75,5.75,0,0,1,2.07,4.81,6.67,6.67,0,0,1-2,5.17,8.57,8.57,0,0,1-5.66,1.65,22.74,22.74,0,0,1-3.14-.19Zm2.76,10.4a5,5,0,0,0,1,.06c2.52,0,4.17-1.42,4.17-4.47,0-2.65-1.49-4.05-3.88-4.05a5.65,5.65,0,0,0-1.25.11Z"/><path class="cls-10" d="M311.67,77.91h-3.3V75.49h9.4v2.42h-3.34V88.25h-2.76Z"/><path class="cls-10" d="M330.83,82.85h-4.5v3h5v2.37h-7.78V75.49h7.53v2.37h-4.77v2.65h4.5Z"/><path class="cls-10" d="M346.53,87.91a7.82,7.82,0,0,1-3.12.55c-4.23,0-6.4-2.76-6.4-6.4a6.35,6.35,0,0,1,6.68-6.76,6.67,6.67,0,0,1,3,.57l-.58,2.27a5.62,5.62,0,0,0-2.32-.47c-2.18,0-3.88,1.38-3.88,4.22,0,2.56,1.45,4.17,3.9,4.17a6.34,6.34,0,0,0,2.32-.42Z"/><path class="cls-10" d="M355.46,75.49v4.9H360v-4.9h2.76V88.25H360V82.91h-4.55v5.34H352.7V75.49Z"/><path class="cls-10" d="M369.5,88.25V75.49h3.23l2.54,4.68a41.18,41.18,0,0,1,2,4.37h0c-.16-1.68-.22-3.41-.22-5.34V75.49h2.54V88.25h-2.9l-2.61-4.92A44.19,44.19,0,0,1,372,78.82h-.07c.09,1.71.13,3.5.13,5.59v3.84Z"/><path class="cls-10" d="M397.54,81.74c0,4.2-2.41,6.72-6,6.72s-5.75-2.86-5.75-6.51c0-3.83,2.36-6.68,6-6.68C395.49,75.26,397.54,78.2,397.54,81.74Zm-8.84.15c0,2.52,1.13,4.28,3,4.28s2.94-1.86,2.94-4.34c0-2.31-1-4.28-2.94-4.28S388.7,79.41,388.7,81.89Z"/><path class="cls-10" d="M403.7,75.49h2.76V85.83h4.86v2.42H403.7Z"/><path class="cls-10" d="M427.77,81.74c0,4.2-2.41,6.72-6,6.72S416,85.6,416,81.95c0-3.83,2.36-6.68,6-6.68C425.72,75.26,427.77,78.2,427.77,81.74Zm-8.84.15c0,2.52,1.13,4.28,3,4.28s2.94-1.86,2.94-4.34c0-2.31-1-4.28-2.94-4.28S418.94,79.41,418.94,81.89Z"/><path class="cls-10" d="M444.13,87.66a13.18,13.18,0,0,1-4.08.72,6.71,6.71,0,0,1-5-1.7A6.55,6.55,0,0,1,433.35,82c0-4.24,3-6.67,7-6.67a8.52,8.52,0,0,1,3.39.61l-.58,2.33a6.17,6.17,0,0,0-2.83-.55,3.78,3.78,0,0,0-4.06,4.13c0,2.65,1.6,4.19,3.86,4.19a4.07,4.07,0,0,0,1.34-.17V83.2h-1.89V80.94h4.55Z"/><path class="cls-10" d="M453.39,75.49V88.25h-2.76V75.49Z"/><path class="cls-10" d="M467.38,82.85h-4.5v3h5v2.37h-7.78V75.49h7.53v2.37h-4.77v2.65h4.5Z"/><path class="cls-10" d="M474.2,85.28a6.76,6.76,0,0,0,3.07.79c1.27,0,1.94-.55,1.94-1.38s-.58-1.25-2.05-1.78c-2-.76-3.37-1.93-3.37-3.79,0-2.18,1.76-3.83,4.63-3.83a6.91,6.91,0,0,1,3.12.64l-.62,2.31a5.53,5.53,0,0,0-2.54-.61c-1.2,0-1.78.59-1.78,1.23,0,.81.67,1.17,2.27,1.8,2.16.83,3.16,2,3.16,3.81,0,2.14-1.56,4-4.92,4a7.69,7.69,0,0,1-3.47-.8Z"/></svg>